<svg xmlns="http://www.w3.org/2000/svg" data-name="Layer 1" viewBox="0 0 129.19 47.78"><path d="M23.6 12.04q.59.04 1.09-.77a6.3 6.3 0 0 0 .74-2 11.08 11.08 0 0 0 .2-2.6 6.59 6.59 0 0 0-.58-2.58 4.62 4.62 0 0 0-1.65-1.92 4.47 4.47 0 0 0-2.91-.6 10.54 10.54 0 0 0-5.15 1.78 19.54 19.54 0 0 0-4.44 4.08 28.97 28.97 0 0 0-3.52 5.6 39.51 39.51 0 0 0-2.44 6.32 31.79 31.79 0 0 0-1.17 6.22 17.19 17.19 0 0 0 .3 5.33A7.26 7.26 0 0 0 6 34.55a4.68 4.68 0 0 0 3.8 1.18 5.1 5.1 0 0 0 2.57-.93 10.82 10.82 0 0 0 2.2-2.03 17.65 17.65 0 0 0 1.79-2.6q.79-1.4 1.35-2.63.57-1.24.88-2.12.32-.88.41-1.06v-.05a3.38 3.38 0 0 1 .14-.36.35.35 0 0 0 .04-.14 1.6 1.6 0 0 1 .11-.31 2.54 2.54 0 0 1 .34-.57 2.1 2.1 0 0 1 .61-.51 2.16 2.16 0 0 1 .93-.28.97.97 0 0 1 .85.28 1.27 1.27 0 0 1 .3.79 4.32 4.32 0 0 1-.1 1.03 7.37 7.37 0 0 1-.29 1.06l-7.35 20.54a4.59 4.59 0 0 1-.4.85 6.45 6.45 0 0 1-.48.6.75.75 0 0 1-.57.26 1.1 1.1 0 0 1-1.03-.68 2.44 2.44 0 0 1-.19-1.76l.39-1.2.86-2.54 1.15-3.43q.63-1.9 1.3-3.84a11.56 11.56 0 0 1-2.68 2.21 7.91 7.91 0 0 1-3.59 1.04A8.18 8.18 0 0 1 4 36.15a8.4 8.4 0 0 1-3.05-3.93 15.13 15.13 0 0 1-.95-5.8 28.76 28.76 0 0 1 .95-6.8 34.6 34.6 0 0 1 2.62-6.91 29.68 29.68 0 0 1 4.08-6.15 22.25 22.25 0 0 1 5.33-4.52 13.95 13.95 0 0 1 6.38-2 8.13 8.13 0 0 1 3 .27 7.92 7.92 0 0 1 2.55 1.27 6.55 6.55 0 0 1 1.83 2.13 7.28 7.28 0 0 1 .83 2.91 9.8 9.8 0 0 1-.47 3.75 11.25 11.25 0 0 1-1.7 3.34 7.3 7.3 0 0 1-2.47 2.16 3.37 3.37 0 0 1-2.85.18 2.82 2.82 0 0 1-1.71-1.4 3 3 0 0 1-.25-1.94 3.44 3.44 0 0 1 .93-1.73 2.75 2.75 0 0 1 1.8-.84 2.01 2.01 0 0 1 1.22.23 2.4 2.4 0 0 1 .65.63 4.97 4.97 0 0 1 .4.7.5.5 0 0 0 .48.34zM37.5 25.08q.4.04.47.54a1.63 1.63 0 0 1-.1.9l-1.16 2.35a28.7 28.7 0 0 1-1.42 2.6 11.64 11.64 0 0 1-1.65 2.11 2.42 2.42 0 0 1-1.83.84 2.57 2.57 0 0 1-1.71-.66 2.51 2.51 0 0 1-.68-1.33 5.2 5.2 0 0 1-1.2 1.45 2.69 2.69 0 0 1-2 .54 3.36 3.36 0 0 1-2.3-.88 4.94 4.94 0 0 1-1.13-1.78 7.52 7.52 0 0 1-.4-2.56 14.76 14.76 0 0 1 1.14-5.16 16.54 16.54 0 0 1 2.44-4.07 11.52 11.52 0 0 1 3-2.63 5.38 5.38 0 0 1 2.84-.88 2.18 2.18 0 0 1 1.77.65 2.84 2.84 0 0 1 .54 1.38 4.7 4.7 0 0 1 .97-1.6 1.12 1.12 0 0 1 .83-.39 1.01 1.01 0 0 1 .93.45 1.63 1.63 0 0 1 .15.9 4.78 4.78 0 0 1-.31 1.26l-1.67 4.22q-.63 1.66-1.29 3.2-.65 1.55-.88 2.18l-.5 1.37a11.05 11.05 0 0 0-.4 1.48 3.6 3.6 0 0 0-.07 1.17c.05.31.19.47.43.47.12 0 .4-.3.81-.9q.64-.9 1.31-2.08.68-1.17 1.29-2.28l.79-1.46a10.01 10.01 0 0 0 .52-1.09.45.45 0 0 1 .47-.31zm-7.72 4.3l1-2.52q.45-1.08.95-2.39l.99-2.52q0-.09.13-.76a10.52 10.52 0 0 0 .18-1.47 3.9 3.9 0 0 0-.15-1.41.79.79 0 0 0-.8-.63 2.7 2.7 0 0 0-1.96 1.1 15.06 15.06 0 0 0-2.03 2.88 29.13 29.13 0 0 0-1.76 3.78 20.98 20.98 0 0 0-1.1 3.8 8.26 8.26 0 0 0-.1 2.95 1.31 1.31 0 0 0 1.32 1.24 1.72 1.72 0 0 0 1.26-.63 10.2 10.2 0 0 0 1.08-1.4 18.3 18.3 0 0 0 1-2.02z"/><path d="M49.68 22.8q-.54 1.48-1.03 2.7l-.8 1.98-.47 1.22-.5 1.37a11.07 11.07 0 0 0-.4 1.49 3.62 3.62 0 0 0-.07 1.17q.07.47.43.47c.12 0 .4-.3.81-.9q.64-.9 1.31-2.1l1.29-2.3.79-1.47a7.63 7.63 0 0 0 .5-1.06c.05-.2.22-.3.5-.3q.4.05.44.55a1.94 1.94 0 0 1-.09.86q-.5.99-1.15 2.37a27.03 27.03 0 0 1-1.42 2.61 11.64 11.64 0 0 1-1.65 2.12 2.42 2.42 0 0 1-1.82.84 2.61 2.61 0 0 1-1.7-.61 2.31 2.31 0 0 1-.65-1.24 4.74 4.74 0 0 1-1.26 1.3 3.37 3.37 0 0 1-1.99.55 3.7 3.7 0 0 1-2.55-.8 4.96 4.96 0 0 1-1.29-1.73 6.74 6.74 0 0 1-.54-2.52 13.36 13.36 0 0 1 1-5.22 15.73 15.73 0 0 1 2.45-4.1 11.95 11.95 0 0 1 3.16-2.71 6.27 6.27 0 0 1 3.05-.97 3.05 3.05 0 0 1 1.2.2 2.15 2.15 0 0 1 .74.5 1.7 1.7 0 0 1 .38.68 2.8 2.8 0 0 1 .12.78l1.21-3.38 1.09-2.93 1.04-2.85q.18-.4.38-.9a5.1 5.1 0 0 1 .47-.9 2.73 2.73 0 0 1 .68-.7 1.58 1.58 0 0 1 .95-.3q.67 0 .81.5a2.58 2.58 0 0 1 .04 1.08 8.1 8.1 0 0 1-.5 1.54zm-3.1.82c.11-.3.22-.59.3-.86l.32-.85a16.76 16.76 0 0 0 .25-2.14 4.05 4.05 0 0 0-.2-1.44.88.88 0 0 0-.9-.65 3.03 3.03 0 0 0-2.06 1.17 14.95 14.95 0 0 0-2.1 2.92 25.6 25.6 0 0 0-1.73 3.78 19.78 19.78 0 0 0-1.02 3.78 7.19 7.19 0 0 0 .05 2.93 1.4 1.4 0 0 0 1.44 1.17 1.7 1.7 0 0 0 1.2-.66 9.16 9.16 0 0 0 1.1-1.46 15.35 15.35 0 0 0 1.13-2.11l.3-.77q.2-.54.51-1.3l.68-1.67.72-1.84z"/><path d="M65.26 24.9q.81.09.54.76l-.81 1.81a13.91 13.91 0 0 1-1.04 1.87 15.03 15.03 0 0 1-1.65 2.06 20.5 20.5 0 0 1-2.64 2.3l-2.1 5.6a25.42 25.42 0 0 1-2.86 5.4 10.72 10.72 0 0 1-1.9 2.08 3.24 3.24 0 0 1-2.07.82 1.56 1.56 0 0 1-1.54-.7 2.7 2.7 0 0 1-.11-1.83 11.24 11.24 0 0 1 1-2.6 27.1 27.1 0 0 1 1.82-3.04 32.37 32.37 0 0 1 2.41-3.1q1.34-1.5 2.69-2.77v-.09a.69.69 0 0 1-.18.14 6.23 6.23 0 0 1-2.75.76 2.47 2.47 0 0 1-2.44-1.17 6.28 6.28 0 0 1-.79-3.23 15.47 15.47 0 0 1 .63-4.3 18.95 18.95 0 0 1 1.8-4.36 13.4 13.4 0 0 1 2.74-3.4 5.55 5.55 0 0 1 3.47-1.5 3.56 3.56 0 0 1 1.9.3 3.47 3.47 0 0 1 1.26 1.06 3.58 3.58 0 0 0 .18-.45 1.43 1.43 0 0 1 .47-.68 1.23 1.23 0 0 1 .8-.27.96.96 0 0 1 .94.59 1.56 1.56 0 0 1 .05 1.21l-.81 2.37L63.05 24l-1.4 3.95-1.36 3.9a11.39 11.39 0 0 0 2.28-2.77 22.44 22.44 0 0 0 1.83-3.77.55.55 0 0 1 .36-.31 1.57 1.57 0 0 1 .5-.1zm-14.4 20.3a1.76 1.76 0 0 0 1.2-.74 11.24 11.24 0 0 0 1.3-1.92 26.98 26.98 0 0 0 1.29-2.68q.63-1.52 1.22-3a31.6 31.6 0 0 0-2.3 2.77q-1.09 1.47-1.83 2.7a12.52 12.52 0 0 0-1.04 2.06q-.3.81.16.81zm3.52-11.68a2.26 2.26 0 0 0 1.33-.7 9.87 9.87 0 0 0 1.4-1.7 19.32 19.32 0 0 0 1.35-2.39q.65-1.35 1.2-2.8a.2.2 0 0 1 .02-.08.2.2 0 0 0 .02-.1q.59-1.57 1-3.1a15.38 15.38 0 0 0 .5-2.74 5.44 5.44 0 0 0-.14-1.94.84.84 0 0 0-.9-.7q-.82.05-1.77 1.29a20.31 20.31 0 0 0-1.87 3.04 32.05 32.05 0 0 0-1.67 3.9 28.46 28.46 0 0 0-1.1 3.91 11.27 11.27 0 0 0-.27 2.98q.09 1.17.9 1.13z"/><path d="M76.58 25.3a.84.84 0 0 1 .43-.45.83.83 0 0 1 .56-.06.66.66 0 0 1 .4.26.53.53 0 0 1 0 .52q-.49 1.04-1.17 2.55a15.48 15.48 0 0 1-1.71 2.92 9.9 9.9 0 0 1-2.55 2.39 6.47 6.47 0 0 1-3.63.99 4.34 4.34 0 0 1-3.4-1.33 6.07 6.07 0 0 1-1.48-3.34 12.13 12.13 0 0 1 .28-4.36 14.07 14.07 0 0 1 1.8-4.35 11.68 11.68 0 0 1 3.14-3.34 7.18 7.18 0 0 1 4.26-1.33 2.82 2.82 0 0 1 1.36.3 2.94 2.94 0 0 1 .9.74 3.15 3.15 0 0 1 .54 1.01 3.62 3.62 0 0 1 .18 1.1 7.2 7.2 0 0 1-.77 3 12.7 12.7 0 0 1-2.05 3.1 11.82 11.82 0 0 1-3.05 2.44 7.8 7.8 0 0 1-3.7 1.03 5.3 5.3 0 0 0 .63 2.71 2.3 2.3 0 0 0 2.17 1.09 3.68 3.68 0 0 0 2.32-.88 11.14 11.14 0 0 0 2.01-2.1 17.7 17.7 0 0 0 1.56-2.5q.65-1.3.97-2.1zm-2.98-7.26a3.22 3.22 0 0 0-2.05.84 9.9 9.9 0 0 0-1.9 2.15 15.94 15.94 0 0 0-1.53 2.95 18.1 18.1 0 0 0-.97 3.22.36.36 0 0 0 .11.38.5.5 0 0 0 .3.12 3.2 3.2 0 0 0 1.84-.73 11.03 11.03 0 0 0 1.9-1.8 15.83 15.83 0 0 0 1.62-2.3 14.48 14.48 0 0 0 1.11-2.32 4.3 4.3 0 0 0 .32-1.79.69.69 0 0 0-.75-.72z"/><path d="M95.67 9.69a.78.78 0 0 1 .4 1.04.9.9 0 0 1-.5.52.73.73 0 0 1-.71-.07 4.73 4.73 0 0 0-2.22-.56 11.76 11.76 0 0 0-2.61.27 20.23 20.23 0 0 0-2.87.83l-2.95 1.08a8.39 8.39 0 0 0-1.04.41l-4.83 14.17a12.68 12.68 0 0 0-.63 2.93 3.83 3.83 0 0 0 .31 1.97q.4.88 1.72.74a2.17 2.17 0 0 0 1.26-.88 14.6 14.6 0 0 0 1.4-1.94q.68-1.1 1.24-2.19a18.23 18.23 0 0 0 .8-1.67 1.1 1.1 0 0 1 .5-.65.7.7 0 0 1 .53-.03.62.62 0 0 1 .34.34.66.66 0 0 1 .06.43l-.63 1.45a20.64 20.64 0 0 1-1.44 2.64 14.56 14.56 0 0 1-2.1 2.6 4.23 4.23 0 0 1-2.55 1.3 3.37 3.37 0 0 1-3.7-2.41 7.16 7.16 0 0 1-.27-1.83 4.26 4.26 0 0 1 .04-1.06 6.11 6.11 0 0 1 .28-1.02l.76-2.25 1.13-3.39q.63-1.9 1.36-4.02l1.4-4.15q-1.22.36-2.4.59a10.68 10.68 0 0 1-2.25.2 6.82 6.82 0 0 1-2.08-.36 4.92 4.92 0 0 1-1.8-1.1 1.06 1.06 0 0 1-.3-.55.74.74 0 0 1 .11-.58.81.81 0 0 1 .61-.4.88.88 0 0 1 .7.22 3.72 3.72 0 0 0 1.58.88 5.74 5.74 0 0 0 1.92.18 11.34 11.34 0 0 0 2.19-.39q1.17-.31 2.39-.72l.84-2.48.65-2.03c.21-.66.4-1.26.59-1.8.06-.28.14-.58.24-.93a5.05 5.05 0 0 1 .41-.97 2.82 2.82 0 0 1 .61-.77 1.47 1.47 0 0 1 .86-.36c.42-.03.68.1.79.4a2.55 2.55 0 0 1 .11 1.05 7.19 7.19 0 0 1-.32 1.57L83.9 11.1q1.98-.77 3.95-1.42a14.27 14.27 0 0 1 3.81-.75 6.64 6.64 0 0 1 4.02.77z"/><path d="M96.48 27.15q-.1.23-.68 1.4a20.85 20.85 0 0 1-1.49 2.49 13.4 13.4 0 0 1-2.05 2.34 3.58 3.58 0 0 1-2.41 1.04 2.2 2.2 0 0 1-1.85-.66 2.7 2.7 0 0 1-.46-1.78 10.08 10.08 0 0 1 .5-2.57q.45-1.44 1.04-2.93l1.17-2.96q.59-1.46.93-2.6a4.68 4.68 0 0 0 .25-1.84.81.81 0 0 0-.86-.77 1.34 1.34 0 0 0-1.2.36 3.54 3.54 0 0 0-.6.81l-.14.4q-1.04 2.72-2.01 5.04a45.77 45.77 0 0 1-2.28 4.67l-.04.05a1.27 1.27 0 0 1-.61.51.68.68 0 0 1-.75-.15.4.4 0 0 1-.02-.54 3.33 3.33 0 0 0 .3-.55 55.96 55.96 0 0 0 2.9-6.58 73.84 73.84 0 0 0 2.5-8.17 1.03 1.03 0 0 1 .44-.52.71.71 0 0 1 .88.02 18.18 18.18 0 0 1 1.69 1.38 15.41 15.41 0 0 1 1.44 1.58 9.11 9.11 0 0 1 1.24 2.05 4.02 4.02 0 0 1 .1 2.41 20.21 20.21 0 0 1-.95 3.03q-.64 1.6-1.43 3.2-.79 1.6-1.33 2.87a7.13 7.13 0 0 0-.6 2.05q-.07.79.74.8.4 0 1.17-1.02.77-1.02 1.54-2.24.85-1.44 1.9-3.3l.26-.53c.06-.12.2-.17.4-.14a.52.52 0 0 1 .5.43 1.54 1.54 0 0 1-.13.92z"/><path d="M110.24 25.08q.4.04.48.54a1.65 1.65 0 0 1-.12.9l-1.15 2.35a28.7 28.7 0 0 1-1.42 2.6 11.62 11.62 0 0 1-1.65 2.11 2.42 2.42 0 0 1-1.82.84 2.56 2.56 0 0 1-1.72-.66 2.5 2.5 0 0 1-.67-1.33 5.22 5.22 0 0 1-1.2 1.45 2.69 2.69 0 0 1-2 .54 3.36 3.36 0 0 1-2.31-.88 4.94 4.94 0 0 1-1.13-1.78 7.53 7.53 0 0 1-.4-2.56 14.76 14.76 0 0 1 1.15-5.16 16.53 16.53 0 0 1 2.43-4.07 11.5 11.5 0 0 1 3-2.63 5.38 5.38 0 0 1 2.85-.88 2.18 2.18 0 0 1 1.76.65 2.84 2.84 0 0 1 .54 1.38 4.69 4.69 0 0 1 .97-1.6 1.12 1.12 0 0 1 .83-.39 1.01 1.01 0 0 1 .93.45 1.63 1.63 0 0 1 .16.9 4.77 4.77 0 0 1-.32 1.26l-1.67 4.22q-.63 1.66-1.28 3.2-.66 1.55-.89 2.18l-.5 1.37a11.13 11.13 0 0 0-.4 1.48 3.6 3.6 0 0 0-.06 1.17c.04.31.18.47.42.47.12 0 .4-.3.82-.9q.63-.9 1.3-2.08.68-1.17 1.3-2.28.6-1.1.78-1.46a9.76 9.76 0 0 0 .52-1.09.45.45 0 0 1 .47-.31zm-7.71 4.3l.99-2.52q.45-1.08.95-2.39l.99-2.52q0-.09.13-.76a10.44 10.44 0 0 0 .19-1.47 3.89 3.89 0 0 0-.16-1.41.79.79 0 0 0-.8-.63 2.7 2.7 0 0 0-1.95 1.1 15.13 15.13 0 0 0-2.04 2.88 29.33 29.33 0 0 0-1.76 3.78 20.97 20.97 0 0 0-1.1 3.8 8.25 8.25 0 0 0-.1 2.95 1.31 1.31 0 0 0 1.32 1.24 1.72 1.72 0 0 0 1.26-.63 10.28 10.28 0 0 0 1.08-1.4 18.39 18.39 0 0 0 1-2.02z"/><path d="M115.04 25.12a1 1 0 0 1 .52.27q.16.18-.02.5l-.82 1.76a15.06 15.06 0 0 1-1.03 1.9 14.37 14.37 0 0 1-1.65 2.07 19.34 19.34 0 0 1-2.69 2.3l-.9 2.5-.45 1.3v.04q-.27.68-.65 1.56-.39.87-.84 1.82-.45.95-1.01 1.92-.57.97-1.16 1.83a10.27 10.27 0 0 1-1.91 2.07 3.38 3.38 0 0 1-2.15.82 1.56 1.56 0 0 1-1.53-.7 2.7 2.7 0 0 1-.11-1.83 10.8 10.8 0 0 1 1.01-2.6 29.97 29.97 0 0 1 1.85-3.04 32.29 32.29 0 0 1 2.42-3.1 33.9 33.9 0 0 1 2.73-2.77l.4-1.15.32-.92 2.34-6.37q.45-1.21.9-2.48l.86-2.34q.41-1.09.7-1.92l.43-1.24a1.43 1.43 0 0 1 .48-.68 1.23 1.23 0 0 1 .79-.27 1 1 0 0 1 .99.59 1.56 1.56 0 0 1 .04 1.21q-.27.82-.83 2.4l-1.24 3.5-1.42 4-1.42 3.96a11.98 11.98 0 0 0 2.3-2.76 22.94 22.94 0 0 0 1.9-3.74.66.66 0 0 1 .35-.3 1.3 1.3 0 0 1 .5-.1zM100.36 45.4a1.77 1.77 0 0 0 1.24-.75 11.05 11.05 0 0 0 1.3-1.92 29.76 29.76 0 0 0 1.32-2.68q.65-1.51 1.24-3a35.07 35.07 0 0 0-2.33 2.77q-1.1 1.47-1.87 2.71a11.68 11.68 0 0 0-1.06 2.05q-.3.82.16.82z"/><path d="M128.7 25.08q.4.04.47.54a1.65 1.65 0 0 1-.1.9l-1.16 2.35a28.69 28.69 0 0 1-1.42 2.6 11.62 11.62 0 0 1-1.65 2.11 2.42 2.42 0 0 1-1.83.84 2.56 2.56 0 0 1-1.71-.66 2.5 2.5 0 0 1-.68-1.33 5.22 5.22 0 0 1-1.2 1.45 2.69 2.69 0 0 1-2 .54 3.36 3.36 0 0 1-2.3-.88 4.94 4.94 0 0 1-1.13-1.78 7.53 7.53 0 0 1-.4-2.56 14.76 14.76 0 0 1 1.14-5.16 16.53 16.53 0 0 1 2.44-4.07 11.5 11.5 0 0 1 3-2.63 5.38 5.38 0 0 1 2.84-.88 2.18 2.18 0 0 1 1.76.65 2.84 2.84 0 0 1 .54 1.38 4.69 4.69 0 0 1 .98-1.6 1.12 1.12 0 0 1 .83-.39 1.01 1.01 0 0 1 .92.45 1.63 1.63 0 0 1 .16.9 4.77 4.77 0 0 1-.31 1.26l-1.67 4.22q-.64 1.66-1.29 3.2-.65 1.55-.88 2.18l-.5 1.37a11.13 11.13 0 0 0-.4 1.48 3.6 3.6 0 0 0-.07 1.17c.05.31.19.47.43.47.12 0 .39-.3.81-.9q.63-.9 1.31-2.08.68-1.17 1.29-2.28l.79-1.46a9.76 9.76 0 0 0 .52-1.09.45.45 0 0 1 .47-.31zm-7.72 4.3l1-2.52q.45-1.08.94-2.39.5-1.3 1-2.52 0-.09.13-.76a10.44 10.44 0 0 0 .18-1.47 3.89 3.89 0 0 0-.16-1.41.79.79 0 0 0-.79-.63 2.7 2.7 0 0 0-1.96 1.1 15.13 15.13 0 0 0-2.03 2.88 29.33 29.33 0 0 0-1.76 3.78 20.97 20.97 0 0 0-1.1 3.8 8.25 8.25 0 0 0-.1 2.95 1.31 1.31 0 0 0 1.31 1.24 1.72 1.72 0 0 0 1.27-.63 10.28 10.28 0 0 0 1.08-1.4 18.39 18.39 0 0 0 1-2.02z"/><circle cx="115.5" cy="11.62" r="1.5"/></svg>